<svg xmlns="http://www.w3.org/2000/svg" width="100" height="100" viewBox="0 0 100 100" fill="none">
  <path d="M50 12 L55 25 L68 30 L55 35 L50 48 L45 35 L32 30 L45 25 Z" fill="#9a5f90"/>
  <path d="M21 56 L24 63 L31 66 L24 69 L21 76 L18 69 L11 66 L18 63 Z" fill="#9a5f90"/>
  <path d="M76 54 L79.5 63 L88 66.5 L79.5 70 L76 79 L72.5 70 L64 66.5 L72.5 63 Z" fill="#9a5f90"/>
  <path d="M74 18 L75.7 22.3 L80 24 L75.7 25.7 L74 30 L72.3 25.7 L68 24 L72.3 22.3 Z" fill="#9a5f90"/>
  <path d="M39 71 L40.5 75 L45 76.5 L40.5 78 L39 82 L37.5 78 L33 76.5 L37.5 75 Z" fill="#9a5f90"/>
</svg>
