<svg xmlns="http://www.w3.org/2000/svg" width="640" height="640" viewBox="0 0 640 640" fill="none">
  <path d="M86 42H185V218H86V42Z" fill="#000000"/>
  <path d="M457 42H554V218H457V42Z" fill="#000000"/>
  <path d="M185 174H457V218H185V174Z" fill="#000000"/>
  <path d="M188 100C206 72 251 66 272 62C294 58 316 36 331 43C354 53 379 96 340 149C335 106 352 56 398 50C453 43 493 57 505 91C518 127 492 168 411 207H232C214 198 195 171 180 142C170 121 170 109 188 100Z" fill="#E88455"/>
  <path d="M218 185H422C427.523 185 432 189.477 432 195V197C432 202.523 427.523 207 422 207H218C212.477 207 208 202.523 208 197V195C208 189.477 212.477 185 218 185Z" fill="#E88455"/>
  <path d="M217 218H424C508 271 554 356 554 474C554 561 435 599 320 598C205 597 86 561 86 474C86 356 133 271 217 218Z" fill="#E88455"/>
  <path d="M332 258V290C353 292 373 296 389 303L381 328C362 322 345 319 326 319C300 319 286 329 286 344C286 360 304 370 340 384C381 400 402 420 402 452C402 483 380 506 333 511V545H308V512C281 510 254 504 235 495L246 467C267 477 292 484 319 484C342 484 356 474 356 457C356 441 342 431 306 416C266 401 238 380 238 348C238 318 262 295 308 291V258H332Z" fill="#FFFFFF"/>
</svg>
