<svg xmlns="http://www.w3.org/2000/svg" width="64" height="64" viewBox="0 0 64 64" fill="none">
  <path d="M24.8 9.6C27.1 12.8 29.1 14.4 32 14.4C34.9 14.4 36.9 12.8 39.2 9.6C42 14 41.4 18 37.3 21.2H26.7C22.6 18 22 14 24.8 9.6Z" fill="#EA865C"/>
  <path d="M22.4 22.8H41.6C42.8 22.8 43.8 23.8 43.8 25C43.8 26.2 42.8 27.2 41.6 27.2H22.4C21.2 27.2 20.2 26.2 20.2 25C20.2 23.8 21.2 22.8 22.4 22.8Z" fill="#EA865C"/>
  <path d="M22.8 28.6H41.2C48.9 35.1 53.2 43 53.2 50C53.2 57.5 43.1 61 32 61C20.9 61 10.8 57.5 10.8 50C10.8 43 15.1 35.1 22.8 28.6Z" fill="#EA865C"/>
  <path d="M34 36.2V39.1C37 39.5 39.4 40.5 41.2 41.6L39.4 46.2C37.6 45.1 35.5 44.2 32.8 44.2C29.9 44.2 28.6 45.1 28.6 46.3C28.6 47.8 30.4 48.6 34.1 49.9C39.1 51.6 41.6 53.9 41.6 57.6C41.6 57.9 41.6 58.2 41.5 58.5C38.7 60.1 35.1 61 32 61C29.2 61 25.9 60.8 22.9 60.1L24.8 55.1C26.8 56.2 29.6 57.1 32.1 57.1C34.8 57.1 36.4 56.2 36.4 54.7C36.4 53.3 35 52.5 31.3 51.2C26.4 49.5 23.5 47.3 23.5 43.5C23.5 40 26 37.2 30.1 36.4V33.4H34V36.2Z" fill="#FDEFCE"/>
</svg>
