<svg xmlns="http://www.w3.org/2000/svg" width="60" height="60" viewBox="0 0 60 60" fill="none">
  <circle cx="30" cy="30" r="22" stroke="#E88A5E" stroke-width="3" />
  <g fill="#E88A5E">
    <path d="M38 17.5V34.2C37.2 33.8 36.1 33.5 34.9 33.5C31.9 33.5 29.5 35.3 29.5 37.6C29.5 39.9 31.9 41.7 34.9 41.7C37.9 41.7 40.2 39.9 40.2 37.6V24.2L25.7 27.1V36.6C24.9 36.2 23.8 35.9 22.6 35.9C19.6 35.9 17.2 37.7 17.2 40C17.2 42.3 19.6 44.1 22.6 44.1C25.6 44.1 28 42.3 28 40V24.2L38 22.2V17.5Z"/>
  </g>
</svg>
